<?xml version="1.0" encoding="utf-8"?>
<!-- Generator: Adobe Illustrator 24.0.1, SVG Export Plug-In . SVG Version: 6.00 Build 0)  -->
<svg version="1.1" id="Camada_1" xmlns="http://www.w3.org/2000/svg" xmlns:xlink="http://www.w3.org/1999/xlink" x="0px" y="0px"
	 viewBox="0 0 69.1 78.2" style="enable-background:new 0 0 69.1 78.2;" xml:space="preserve">
<style type="text/css">
	.st0{fill:none;}
	.st1{opacity:0.38;}
	.st2{fill:#F8F8FF;}
</style>
<title>Ativo 4</title>
<g id="Camada_2_1_">
	<g id="Camada_1-2">
		<rect y="0" class="st0" width="69.1" height="78.2"/>
		<g class="st1">
			<path class="st2" d="M51,22.8l-0.3-0.1c-3.7-1.2-7.4,1.4-9.4,4.4c-1.9,2.7-2.7,7,0.1,9.3c0.4,0.3,0.9,0.5,1.4,0.7
				c4.4,0.7,8.5-2.9,10-6.9C54,27.7,53.6,24.1,51,22.8z M36.8,15.3c-2.1-1.1-4.9,0.2-6.3,2c-2.8,3.6-3.7,9.5-0.3,13
				c0.3,0.3,0.7,0.5,1.1,0.7c3,1,5.9-1.5,7.1-4.1c1.7-3.4,2.1-8.2-0.8-11C37.4,15.7,37.1,15.5,36.8,15.3z M53.9,39.1
				c-3.7-1.7-8.1,0.6-10.3,3.8c-1.8,2.2-2.3,6.2,0.4,7.8c3.9,2,8.7-0.7,10.8-4.3C56.3,44.3,56.4,40.7,53.9,39.1z M22,23
				c-1.6-0.9-3.6-0.6-4.9,0.6c-3.6,3.5-3.8,10.3,0.1,13.5c1.7,1.2,4.1,0.9,5.4-0.7c2.9-3.4,3.3-8.3,0.8-12
				C23.1,23.8,22.6,23.3,22,23z M34.1,39.3c-3.1-1.6-6.8-1.7-10.1-0.4c-3.6,1.5-6.8,3.8-9.4,6.8c-1.8,1.7-1.9,4.6-0.1,6.5
				c0.3,0.3,0.6,0.5,0.9,0.7c3,1.8,6.8,1,10,2.5c2.8,1,4.4,3.6,6.3,5.8c1.5,1.9,4.5,3.1,6.7,1.5c2-1.8,2.1-4.8,2.2-7.3
				c-0.3-4.3-0.6-8.8-2.8-12.5C36.8,41.3,35.6,40.1,34.1,39.3z"/>
		</g>
	</g>
</g>
</svg>
